<svg xmlns="http://www.w3.org/2000/svg" viewBox="0 0 1080 1138.58"><defs><style>.cls-1,.cls-2{fill:#ff0895;}.cls-1{fill-rule:evenodd;}.cls-3{fill:#fff;}.cls-4{fill:#f9ef00;}</style></defs><g id="Layer_3" data-name="Layer 3"><path class="cls-1" d="M190.78,699.8H98.41A33.23,33.23,0,0,0,65.18,733v279.11a33.23,33.23,0,0,0,33.23,33.23H533.68a33.23,33.23,0,0,0,33.23-33.23V733a33.23,33.23,0,0,0-33.23-33.23h-117v2h117A31.24,31.24,0,0,1,564.92,733v279.11a31.24,31.24,0,0,1-31.24,31.23H98.41a31.24,31.24,0,0,1-31.24-31.23V733A31.24,31.24,0,0,1,98.41,701.8h92.37Z"/><path class="cls-1" d="M730.39,694.49h-95a33.22,33.22,0,0,0-33.23,33.22v311A33.23,33.23,0,0,0,635.36,1072H969a33.22,33.22,0,0,0,33.22-33.23v-311A33.22,33.22,0,0,0,969,694.49H862.63v2H969a31.23,31.23,0,0,1,31.23,31.23v311A31.23,31.23,0,0,1,969,1070H635.36a31.24,31.24,0,0,1-31.24-31.23v-311a31.24,31.24,0,0,1,31.24-31.23h95Z"/><path class="cls-2" d="M221.35,706.45h-6V682.69H233v4.89H221.35v5.21h9.53v4.89h-9.53ZM242,707c-5.61,0-9-3.65-9-9s3.42-9.11,9.13-9.11,9,3.66,9,9S247.71,707,242,707Zm.07-4c2.36,0,3.69-1.8,3.69-5.09s-1.33-5.08-3.69-5.08-3.72,1.79-3.72,5.08S239.67,703,242.06,703Zm22.22-14.13c3.29,0,5.52,2.16,5.52,6.05v11.5h-5.32v-9.8c0-2.56-.89-3.43-2.66-3.43-2,0-3.19,1-3.19,3.39v9.84h-5.31v-17h5.31v2.46h.07A6,6,0,0,1,264.28,688.9Zm16.59,13.89a7.8,7.8,0,0,0,1.43-.13v3.76a13.5,13.5,0,0,1-3.16.36c-3.72,0-5.32-1.69-5.32-5.85v-7.51h-2.35v-4h2.35v-4.76h5.32v4.76h3v4h-3v7.38C279.14,702.63,279.84,702.79,280.87,702.79ZM292.14,707c-5.95,0-8.27-2.86-8.41-6.18h5c.16,1.69,1.29,2.53,3.32,2.53,1.56,0,2.26-.5,2.26-1.47,0-1.53-1.69-1.69-4.15-2.26-3-.69-6.08-1.89-6.08-5.35,0-3.19,2.65-5.35,7.44-5.35,5.45,0,7.57,2.76,7.74,5.75h-5c-.17-1.36-.9-2.09-2.66-2.09-1.46,0-2.09.53-2.09,1.36,0,1.13,1,1.2,3.55,1.8,3.36.79,6.68,1.79,6.68,5.74C299.75,705,297.06,707,292.14,707Zm21.36-19.57h-5.31v-4.72h5.31Zm0,19h-5.31v-17h5.31Zm13.9-17.55c3.28,0,5.51,2.16,5.51,6.05v11.5h-5.32v-9.8c0-2.56-.89-3.43-2.65-3.43-2,0-3.19,1-3.19,3.39v9.84h-5.32v-17h5.32v2.46h.06A6,6,0,0,1,327.4,688.9Zm25.73,10.37v-9.83h5.32v17h-5.32V704h-.07a6,6,0,0,1-5.58,3c-3.29,0-5.52-2.16-5.52-6.05V689.44h5.32v9.8c0,2.56.9,3.42,2.66,3.42C352,702.66,353.13,701.63,353.13,699.27ZM368.91,707c-5.94,0-8.27-2.86-8.4-6.18h5c.17,1.69,1.3,2.53,3.32,2.53,1.57,0,2.26-.5,2.26-1.47,0-1.53-1.69-1.69-4.15-2.26-3-.69-6.08-1.89-6.08-5.35,0-3.19,2.66-5.35,7.44-5.35,5.45,0,7.58,2.76,7.74,5.75h-5c-.17-1.36-.9-2.09-2.66-2.09-1.46,0-2.09.53-2.09,1.36,0,1.13,1,1.2,3.55,1.8,3.36.79,6.68,1.79,6.68,5.74C376.52,705,373.83,707,368.91,707Zm26.54-8.41v.8H383.22a3.47,3.47,0,0,0,3.65,3.66c1.9,0,2.7-.87,3-1.73h5.41c-1,3.45-3.78,5.71-8.57,5.71-5.51,0-8.84-3.75-8.84-9.07,0-5,3.13-9.07,8.84-9.07S395.45,692.29,395.45,698.57Zm-12.2-2.49h6.85a3.06,3.06,0,0,0-3.36-3.35A3.24,3.24,0,0,0,383.25,696.08Z"/><path class="cls-2" d="M759.36,706.32c-7.54,0-11.36-5.25-11.36-12.33,0-7.28,4-12.49,11.53-12.49,6.48,0,9.93,3.85,10.5,9.37h-6.12c-.43-2.6-1.49-4.49-4.65-4.49-4,0-5.15,3.06-5.15,7.51s1.2,7.54,5.15,7.54c3.19,0,4.25-1.89,4.65-4.55H770C769.49,702.33,765.91,706.32,759.36,706.32Zm20.93,0c-5.61,0-9-3.66-9-9s3.42-9.1,9.13-9.1,9,3.65,9,9S786,706.35,780.29,706.35Zm.07-4c2.36,0,3.69-1.79,3.69-5.08s-1.33-5.09-3.69-5.09-3.72,1.8-3.72,5.09S778,702.36,780.36,702.36Zm16.57,3.42h-5.31V682h5.31Zm11.23.57c-5.61,0-9-3.66-9-9s3.42-9.1,9.13-9.1,9,3.65,9,9S813.88,706.35,808.16,706.35Zm.07-4c2.36,0,3.69-1.79,3.69-5.08s-1.33-5.09-3.69-5.09-3.72,1.8-3.72,5.09S805.84,702.36,808.23,702.36ZM829,688.64a6.14,6.14,0,0,1,1.47.13v4.65a7.6,7.6,0,0,0-1.1-.1,4.34,4.34,0,0,0-4.59,4.56v7.9h-5.31v-17h5.31v2.79h.07A4.56,4.56,0,0,1,829,688.64Zm10.5,17.68c-5.94,0-8.27-2.86-8.4-6.18h5c.17,1.69,1.3,2.52,3.32,2.52,1.57,0,2.26-.5,2.26-1.46,0-1.53-1.69-1.7-4.15-2.26-3-.7-6.08-1.89-6.08-5.35,0-3.19,2.66-5.35,7.44-5.35,5.45,0,7.58,2.76,7.74,5.75h-5c-.17-1.36-.9-2.09-2.66-2.09-1.46,0-2.09.53-2.09,1.36,0,1.13,1,1.19,3.55,1.79,3.36.8,6.68,1.8,6.68,5.75C847.13,704.36,844.44,706.32,839.52,706.32Z"/><path class="cls-3" d="M104.39,772.24h-6V748.48h6v9.3h8.14v-9.3h6v23.76h-6v-9.57h-8.14Zm21.42,0V756.82c-.9.7-2.83,1-4.86,1v-4.41c3.23,0,5.85-1.27,5.85-4.09h4.65v23Z"/><path class="cls-3" d="M309.4,772.24h-6l-6.05-23.76h6l3.06,16.12h.06l3.69-16.12h5.65l3.69,16.12h.07l3.05-16.12h6l-6,23.76h-6L313,757.42H313Zm36.06-7.88v.8H333.23a3.47,3.47,0,0,0,3.66,3.66c1.89,0,2.69-.87,3-1.73h5.42c-1,3.45-3.79,5.71-8.58,5.71-5.51,0-8.83-3.75-8.83-9.07,0-5,3.12-9.07,8.83-9.07S345.46,758.08,345.46,764.36Zm-12.2-2.49h6.85a3.06,3.06,0,0,0-3.36-3.35A3.25,3.25,0,0,0,333.26,761.87ZM353,753.2h-5.32v-4.72H353Zm0,19h-5.32v-17H353Zm14.12-15.32v-1.69h5.32v15c0,6.08-3.29,8.11-8.51,8.11s-7.74-2.79-8.34-5.52H361c.33.93,1.09,1.7,2.95,1.7,2.4,0,3.19-1.26,3.19-4.29v-1h-.06a5.69,5.69,0,0,1-4.66,2.23c-4.35,0-7.14-3.45-7.14-8.37s2.79-8.38,7.14-8.38a5.69,5.69,0,0,1,4.66,2.23Zm-3.25,10.53c2.16,0,3.15-1.62,3.15-4.38s-1-4.39-3.15-4.39-3.16,1.63-3.16,4.39S361.72,767.45,363.88,767.45Zm22.42-12.76c3.29,0,5.52,2.16,5.52,6v11.5H386.5v-9.8c0-2.56-.89-3.43-2.65-3.43-2,0-3.19,1-3.19,3.39v9.84h-5.32V748.48h5.32v9.2h.06A6,6,0,0,1,386.3,754.69Zm16.59,13.89a7.8,7.8,0,0,0,1.43-.13v3.76a13.45,13.45,0,0,1-3.16.36c-3.72,0-5.31-1.69-5.31-5.85v-7.51h-2.36v-4h2.36v-4.76h5.31v4.76h3v4h-3v7.38C401.16,768.42,401.86,768.58,402.89,768.58Z"/><path class="cls-3" d="M472.81,772.77c-6.21,0-10.9-3.16-10.9-8.61h6c0,2.76,2.09,3.79,4.78,3.79,2.23,0,3.36-.89,3.36-2.12,0-2-2.36-2.56-5.65-3.56-4.12-1.26-7.81-2.86-7.81-7.11,0-5.18,4.06-7.21,9.17-7.21,5.55,0,9.9,2.92,10.07,7.74h-6.05c-.26-1.83-1.72-2.92-4-2.92-1.79,0-3.05.6-3.05,2,0,1.59,1.33,2.12,4.35,3,4.48,1.33,9.1,2.59,9.1,7.51C482.21,769.81,478.76,772.77,472.81,772.77ZM489.6,753.2h-5.31v-4.72h5.31Zm0,19h-5.31v-17h5.31Zm17.35,0H491.7v-3.82l8.27-9.14v-.07h-7.61v-4h14.26v3.82l-8.28,9.13v.07H507Zm18.62-7.88v.8H513.34a3.47,3.47,0,0,0,3.65,3.66c1.9,0,2.69-.87,3-1.73h5.41c-1,3.45-3.79,5.71-8.57,5.71-5.52,0-8.84-3.75-8.84-9.07,0-5,3.13-9.07,8.84-9.07S525.57,758.08,525.57,764.36Zm-12.2-2.49h6.85a3.06,3.06,0,0,0-3.36-3.35A3.24,3.24,0,0,0,513.37,761.87Z"/><path class="cls-2" d="M824.1,963.39c-3.29,0-4.22,3.23-4.22,7.38s.93,7.34,4.22,7.34,4.19-3.19,4.19-7.34S827.39,963.39,824.1,963.39Z"/><path class="cls-2" d="M845.92,971.77c-2.42,0-3.72,1.56-3.72,3.35a3.74,3.74,0,0,0,7.45,0C849.65,973.33,848.35,971.77,845.92,971.77Z"/><path class="cls-2" d="M845.92,968.31c2.33,0,3.39-1.29,3.39-2.86s-1.06-2.82-3.39-2.82-3.39,1.33-3.39,2.82S843.6,968.31,845.92,968.31Z"/><path class="cls-2" d="M801.55,963.39c-3.29,0-4.22,3.23-4.22,7.38s.93,7.34,4.22,7.34,4.19-3.19,4.19-7.34S804.84,963.39,801.55,963.39Z"/><polygon class="cls-2" points="738.23 973.3 741.22 973.3 742.08 969.21 739.09 969.21 738.23 973.3"/><path class="cls-2" d="M894.53,913.79H713.77a56.49,56.49,0,0,0,0,113H894.53a56.49,56.49,0,0,0,0-113Zm-146,55.42h-2.43l-.86,4.09h2.42l-.83,4h-2.46l-1.06,5h-4l1.06-5h-3l-1.06,5h-4l1.07-5h-2.5l.84-4h2.52l.86-4.09h-2.52l.86-4H736l1.26-6h4l-1.26,6h3l1.26-6h4l-1.27,6h2.43Zm21.12-5.85h-11.7v5.22h9.54v4.88h-9.54v8.77h-6V958.48h17.68Zm20.38,0H778.31v5.22h9.53v4.88h-9.53v8.77h-6V958.48H790Zm11.55,19.41c-6.88,0-10.1-5.15-10.1-12s3.22-12,10.1-12,10.07,5.19,10.07,12S808.43,982.77,801.55,982.77Zm22.55,0c-6.88,0-10.1-5.15-10.1-12s3.22-12,10.1-12,10.07,5.19,10.07,12S831,982.77,824.1,982.77Zm21.82,0c-5.25,0-9.5-2.4-9.5-7.12,0-3.09,2.13-4.81,4.32-5.78v-.06c-1.63-.87-3.32-2.26-3.32-4.85,0-4,3.79-6.22,8.5-6.22s8.51,2.26,8.51,6.22c0,2.59-1.73,4-3.32,4.85v.06c2.16,1,4.32,2.69,4.32,5.78C855.43,980.37,851.17,982.77,845.92,982.77Zm21.13,0c-5.25,0-9.5-2.4-9.5-7.12,0-3.09,2.12-4.81,4.32-5.78v-.06c-1.63-.87-3.33-2.26-3.33-4.85,0-4,3.79-6.22,8.51-6.22s8.51,2.26,8.51,6.22c0,2.59-1.73,4-3.33,4.85v.06c2.16,1,4.32,2.69,4.32,5.78C876.55,980.37,872.3,982.77,867.05,982.77Z"/><path class="cls-2" d="M867.05,971.77c-2.43,0-3.72,1.56-3.72,3.35a3.73,3.73,0,0,0,7.44,0C870.77,973.33,869.48,971.77,867.05,971.77Z"/><path class="cls-2" d="M867.05,968.31c2.33,0,3.39-1.29,3.39-2.86s-1.06-2.82-3.39-2.82-3.39,1.33-3.39,2.82S864.72,968.31,867.05,968.31Z"/><polygon class="cls-4" points="738.23 825.1 741.22 825.1 742.08 821.02 739.09 821.02 738.23 825.1"/><path class="cls-4" d="M843.9,815.2c-3.29,0-4.22,3.22-4.22,7.38s.93,7.34,4.22,7.34,4.18-3.19,4.18-7.34S847.19,815.2,843.9,815.2Z"/><path class="cls-4" d="M780.44,814.77a3.87,3.87,0,1,0,3.92,3.89A3.66,3.66,0,0,0,780.44,814.77Z"/><path class="cls-4" d="M866.44,815.2c-3.28,0-4.21,3.22-4.21,7.38s.93,7.34,4.21,7.34,4.19-3.19,4.19-7.34S869.73,815.2,866.44,815.2Z"/><path class="cls-4" d="M894.53,765.59H713.77a56.49,56.49,0,0,0,0,113H894.53a56.49,56.49,0,0,0,0-113ZM748.5,821h-2.43l-.86,4.08h2.42l-.83,4h-2.46L743.28,834h-4l1.06-4.95h-3L736.3,834h-4l1.07-4.95h-2.5l.84-4h2.52l.86-4.08h-2.52l.86-4H736l1.26-5.95h4L740,817h3l1.26-5.95h4L746.93,817h2.43Zm21.12-5.85h-11.7v5.21h9.54v4.89h-9.54V834h-6V810.28h17.68Zm10.69,19.4c-4.46,0-7.81-2.66-8.54-6.34h5.71a2.7,2.7,0,0,0,2.93,2.12c2.85,0,4.08-2.16,4.08-5.15v-.36l-.13-.1a7.34,7.34,0,0,1-5.35,2A7.56,7.56,0,0,1,771.1,819c0-5.09,3.49-8.41,9-8.41,7.57,0,10,5.71,10,11.7C790.14,830.55,786.19,834.57,780.31,834.57Zm31.25-.53H793.35V810.28h18v4.89h-12v4.22H809.7v4.88H799.33v4.89h12.23Zm20.79-18.87h-11.7v5.21h9.54v4.89h-9.54V834h-6V810.28h17.68Zm11.55,19.4c-6.88,0-10.1-5.15-10.1-12s3.22-12,10.1-12,10.06,5.18,10.06,12S850.77,834.57,843.9,834.57Zm22.54,0c-6.87,0-10.1-5.15-10.1-12s3.23-12,10.1-12,10.07,5.18,10.07,12S873.32,834.57,866.44,834.57Z"/><path class="cls-3" d="M104.39,867.27h-6V843.51h6v9.3h8.14v-9.3h6v23.76h-6V857.7h-8.14Zm34.64,0H121.35c0-4.85,2.6-6.91,7.58-10.63,2.49-1.87,4.32-3.39,4.32-5.49,0-1.76-.87-2.82-2.66-2.82-2.16,0-3.46,1.19-3.46,4.35h-5.44c0-5.38,2.85-8.9,9.07-8.9,5,0,8.27,2.59,8.27,7s-3.72,7.28-6.88,9.57a26.46,26.46,0,0,0-2.86,2.33v.07H139Z"/><path class="cls-3" d="M104.39,965.62h-6V941.86h11.53c5,0,8,2.59,8,7.58s-3.09,7.57-8,7.57h-5.55Zm0-13.49h4.15c2.06,0,3.32-.7,3.32-2.69s-1.26-2.69-3.32-2.69h-4.15Z"/><path class="cls-3" d="M100.69,812.11h-2.2V797.86H101l6.62,11h0v-11h2.22v14.25h-2.52l-6.63-11h0Zm20.79-5.3c0,.28,0,.58,0,.74h-7.81a3,3,0,0,0,3,3.27,2.57,2.57,0,0,0,2.67-1.84h2a4.5,4.5,0,0,1-4.7,3.43c-3.23,0-5-2.29-5-5.4s1.92-5.39,5-5.39S121.48,803.66,121.48,806.81Zm-7.83-.8h5.8a2.7,2.7,0,0,0-2.85-2.79A2.86,2.86,0,0,0,113.65,806Zm16.18,2.17v-6.24h2v10.17h-2v-1.27h0a3.89,3.89,0,0,1-3.35,1.55,3.15,3.15,0,0,1-3.39-3.41v-7h2v6.5c0,1.38.6,2.3,2.07,2.3A2.5,2.5,0,0,0,129.83,808.18Zm13.48-1.37c0,.28,0,.58,0,.74h-7.82a3.06,3.06,0,0,0,3.05,3.27,2.56,2.56,0,0,0,2.67-1.84h2a4.51,4.51,0,0,1-4.71,3.43c-3.23,0-5-2.29-5-5.4s1.91-5.39,5-5.39S143.31,803.66,143.31,806.81Zm-7.84-.8h5.8a2.69,2.69,0,0,0-2.85-2.79A2.86,2.86,0,0,0,135.47,806Zm16.13,6.1h-2.16V797.86h2.89l4.11,11.2h0l4.13-11.2h2.89v14.25h-2.15V801.05h0l-3.93,11.06h-1.82l-3.92-11.06h0Zm18.72.3c-3.17,0-5.09-2.19-5.09-5.38s1.92-5.41,5.11-5.41,5.06,2.22,5.06,5.39S173.49,812.41,170.32,812.41Zm0-1.61c2.07,0,3-1.66,3-3.77s-1-3.77-3-3.77-3.07,1.63-3.07,3.77S168.22,810.8,170.34,810.8Zm12.07-9.16a3.14,3.14,0,0,1,3.38,3.41v7.06h-1.95v-6.52c0-1.35-.6-2.27-2.07-2.27a2.49,2.49,0,0,0-2.75,2.55v6.24h-2V801.94h2v1.28h0A3.87,3.87,0,0,1,182.41,801.64Zm9.15,9a3.83,3.83,0,0,0,.83-.08v1.57a5.49,5.49,0,0,1-1.23.12c-1.68,0-2.69-.64-2.69-3v-5.68H187v-1.62h1.48v-3.27h1.95v3.27h2v1.62h-2v5.74C190.42,810.38,190.72,810.62,191.56,810.62Zm7.16-8.92a6.76,6.76,0,0,1,.94.06v1.88a3.68,3.68,0,0,0-.66-.06,3,3,0,0,0-3.05,3.27v5.26H194V801.94H196v1.94h0A3,3,0,0,1,198.72,801.7Zm11.11,5.11c0,.28,0,.58,0,.74H202a3,3,0,0,0,3.05,3.27,2.57,2.57,0,0,0,2.67-1.84h2a4.5,4.5,0,0,1-4.7,3.43c-3.23,0-5-2.29-5-5.4s1.92-5.39,5-5.39S209.83,803.66,209.83,806.81ZM202,806h5.8a2.7,2.7,0,0,0-2.85-2.79A2.86,2.86,0,0,0,202,806Zm12.29,6.38c-2,0-3.32-1.18-3.32-2.91,0-2.27,1.71-3,4.24-3.43,1.6-.3,2.57-.5,2.57-1.49,0-.74-.44-1.36-1.93-1.36-1.77,0-2.31.56-2.41,1.91h-2c.1-2,1.38-3.49,4.49-3.49,2.09,0,3.77.88,3.77,3.51v4.67c0,.74.1,1.11.48,1.11l.24,0v1.2a4.4,4.4,0,0,1-1,.12c-1,0-1.5-.38-1.62-1.53h0A3.83,3.83,0,0,1,214.29,812.39Zm.44-1.57c1.76,0,3.05-.9,3.05-2.68v-1.45a5.87,5.87,0,0,1-2.23.74c-1.79.35-2.55.85-2.55,1.91S213.52,810.82,214.73,810.82Zm9.3,1.29h-2V797.86h2Z"/><path class="cls-3" d="M314,812.11h-2.15V797.86h2.89l4.11,11.2h0l4.13-11.2h2.89v14.25h-2.16V801.05h0l-3.92,11.06h-1.82L314,801.05h0Zm23.51-5.3c0,.28,0,.58,0,.74h-7.82a3.06,3.06,0,0,0,3.05,3.27,2.55,2.55,0,0,0,2.67-1.84h2a4.5,4.5,0,0,1-4.71,3.43c-3.23,0-5-2.29-5-5.4s1.91-5.39,5-5.39S337.47,803.66,337.47,806.81Zm-7.84-.8h5.8a2.69,2.69,0,0,0-2.85-2.79A2.86,2.86,0,0,0,329.63,806Zm16.71-2.83v-5.32h2v14.25h-2v-1.2h0a3.81,3.81,0,0,1-3.13,1.48c-2.6,0-4.57-2-4.57-5.36s2-5.39,4.57-5.39a3.63,3.63,0,0,1,3.13,1.54Zm-2.86,7.6c1.76,0,2.84-1.46,2.84-3.75s-1.08-3.75-2.84-3.75c-1.91,0-2.85,1.75-2.85,3.75S341.57,810.78,343.48,810.78Zm9.1-10.65h-2.21V798h2.21Zm-.14,12h-1.95V801.94h1.95Zm8.89-3.93v-6.24h2v10.17h-2v-1.27h0a3.88,3.88,0,0,1-3.35,1.55,3.14,3.14,0,0,1-3.38-3.41v-7h1.95v6.5c0,1.38.6,2.3,2.07,2.3A2.5,2.5,0,0,0,361.33,808.18Zm15.21-6.54c2.06,0,3.09,1.24,3.09,3.41v7.06h-1.95v-6.52c0-1.35-.28-2.27-1.77-2.27a2.32,2.32,0,0,0-2.38,2.55v6.24h-1.95v-6.52c0-1.35-.28-2.27-1.77-2.27a2.32,2.32,0,0,0-2.38,2.55v6.24h-1.95V801.94h1.95v1.28h0a3.53,3.53,0,0,1,3-1.58,2.56,2.56,0,0,1,2.69,1.78h0A4,4,0,0,1,376.54,801.64Z"/><path class="cls-3" d="M484,812.39c-3.55,0-5.54-1.83-5.54-5h2.19c0,1.89.8,3.13,3.21,3.13,2.17,0,2.91-.88,2.91-2.36,0-1.89-1.35-2.35-2.75-2.35h-1.3v-1.77h1.22c1.38,0,2.35-.62,2.35-2.12,0-1.07-.65-2-2.35-2-2.33,0-2.91,1.24-2.91,2.57h-2.19c0-2.55,1.73-4.42,5.12-4.42,2.45,0,4.57,1.35,4.57,3.78a3,3,0,0,1-2.08,2.95v0a3.28,3.28,0,0,1,2.55,3.39C489,810.89,487,812.39,484,812.39Zm12.15,0c-3.84,0-5.48-3.21-5.48-7.16s1.64-7.17,5.48-7.17,5.47,3.23,5.47,7.17S500,812.39,496.13,812.39Zm0-1.85c2.48,0,3.21-2.48,3.21-5.31s-.73-5.32-3.21-5.32-3.23,2.49-3.23,5.32S493.64,810.54,496.13,810.54Z"/><path class="cls-3" d="M100.08,903.82H98.26V891.94h2.09l5.52,9.14h0v-9.14h1.84v11.88h-2.09l-5.53-9.14h0Zm17.34-4.42a5.26,5.26,0,0,1,0,.61h-6.51a2.54,2.54,0,0,0,2.54,2.73,2.14,2.14,0,0,0,2.22-1.53h1.67a3.76,3.76,0,0,1-3.93,2.86c-2.69,0-4.18-1.91-4.18-4.51s1.59-4.48,4.18-4.48S117.42,896.77,117.42,899.4Zm-6.53-.67h4.83a2.25,2.25,0,0,0-2.38-2.32A2.37,2.37,0,0,0,110.89,898.73Zm13.48,1.82v-5.21H126v8.48h-1.63v-1.07h0a3.23,3.23,0,0,1-2.79,1.3,2.63,2.63,0,0,1-2.83-2.84v-5.87h1.63v5.42c0,1.15.5,1.91,1.73,1.91A2.08,2.08,0,0,0,124.37,900.55Zm11.23-1.15c0,.23,0,.48,0,.61h-6.52a2.55,2.55,0,0,0,2.55,2.73,2.14,2.14,0,0,0,2.22-1.53h1.66a3.75,3.75,0,0,1-3.92,2.86c-2.69,0-4.18-1.91-4.18-4.51s1.59-4.48,4.18-4.48S135.6,896.77,135.6,899.4Zm-6.53-.67h4.84a2.25,2.25,0,0,0-2.38-2.32A2.38,2.38,0,0,0,129.07,898.73Zm13.44,5.09h-1.79V891.94h2.4l3.43,9.34h0l3.44-9.34h2.41v11.88h-1.8V894.6h0l-3.27,9.22h-1.51l-3.28-9.22h0Zm15.6.25c-2.64,0-4.24-1.83-4.24-4.49s1.6-4.5,4.26-4.5,4.22,1.84,4.22,4.48S160.75,904.07,158.11,904.07Zm0-1.35c1.72,0,2.52-1.38,2.52-3.14s-.8-3.14-2.52-3.14-2.56,1.36-2.56,3.14S156.37,902.72,158.13,902.72Zm10.05-7.62a2.62,2.62,0,0,1,2.83,2.84v5.88h-1.63v-5.43c0-1.13-.5-1.9-1.73-1.9a2.08,2.08,0,0,0-2.29,2.13v5.2h-1.63v-8.48h1.63v1.07h0A3.24,3.24,0,0,1,168.18,895.1Zm7.63,7.47a3.31,3.31,0,0,0,.7-.06v1.31a4.9,4.9,0,0,1-1,.1c-1.4,0-2.24-.53-2.24-2.49v-4.74H172v-1.35h1.23v-2.72h1.62v2.72h1.63v1.35h-1.63v4.79C174.86,902.37,175.11,902.57,175.81,902.57Zm6-7.42a4.65,4.65,0,0,1,.78.05v1.56a2.41,2.41,0,0,0-.54,0,2.53,2.53,0,0,0-2.55,2.72v4.39h-1.62v-8.48h1.62V897h0A2.45,2.45,0,0,1,181.78,895.15ZM191,899.4a5.26,5.26,0,0,1,0,.61h-6.51a2.54,2.54,0,0,0,2.54,2.73,2.14,2.14,0,0,0,2.23-1.53h1.66a3.75,3.75,0,0,1-3.92,2.86c-2.69,0-4.19-1.91-4.19-4.51s1.6-4.48,4.19-4.48S191,896.77,191,899.4Zm-6.53-.67h4.84a2.25,2.25,0,0,0-2.38-2.32A2.38,2.38,0,0,0,184.51,898.73Zm10.25,5.32c-1.7,0-2.78-1-2.78-2.43,0-1.89,1.43-2.45,3.54-2.85,1.33-.25,2.15-.42,2.15-1.25,0-.61-.37-1.13-1.62-1.13-1.47,0-1.92.47-2,1.6h-1.66c.09-1.63,1.15-2.91,3.74-2.91,1.75,0,3.14.73,3.14,2.92v3.89c0,.62.08.93.4.93l.2,0v1a3.48,3.48,0,0,1-.83.1c-.82,0-1.25-.31-1.35-1.28h0A3.2,3.2,0,0,1,194.76,904.05Zm.36-1.31c1.47,0,2.55-.75,2.55-2.23V899.3a4.93,4.93,0,0,1-1.87.61c-1.49.3-2.12.72-2.12,1.6S194.11,902.74,195.12,902.74Zm7.75,1.08h-1.63V891.94h1.63Z"/><path class="cls-3" d="M312.7,903.82h-1.79V891.94h2.41l3.42,9.34h0l3.43-9.34h2.41v11.88h-1.79V894.6h0l-3.28,9.22H316l-3.27-9.22h0Zm19.59-4.42a5.26,5.26,0,0,1,0,.61h-6.51a2.55,2.55,0,0,0,2.54,2.73,2.14,2.14,0,0,0,2.23-1.53h1.66a3.75,3.75,0,0,1-3.92,2.86c-2.69,0-4.19-1.91-4.19-4.51s1.6-4.48,4.19-4.48S332.29,896.77,332.29,899.4Zm-6.53-.67h4.84a2.25,2.25,0,0,0-2.38-2.32A2.38,2.38,0,0,0,325.76,898.73Zm13.92-2.35v-4.44h1.63v11.88h-1.63v-1h0a3.17,3.17,0,0,1-2.61,1.23c-2.16,0-3.8-1.68-3.8-4.47s1.64-4.48,3.8-4.48a3,3,0,0,1,2.61,1.28Zm-2.37,6.32c1.46,0,2.35-1.21,2.35-3.12s-.89-3.12-2.35-3.12-2.38,1.46-2.38,3.12S335.71,902.7,337.31,902.7Zm7.58-8.87H343v-1.76h1.85Zm-.12,10h-1.63v-8.48h1.63Zm7.41-3.27v-5.21h1.63v8.48h-1.63v-1.07h0a3.23,3.23,0,0,1-2.79,1.3,2.62,2.62,0,0,1-2.83-2.84v-5.87h1.63v5.42c0,1.15.5,1.91,1.73,1.91A2.08,2.08,0,0,0,352.18,900.55Zm12.67-5.45c1.72,0,2.58,1,2.58,2.84v5.88H365.8v-5.43c0-1.13-.23-1.9-1.48-1.9a1.93,1.93,0,0,0-2,2.13v5.2h-1.63v-5.43c0-1.13-.23-1.9-1.48-1.9a1.93,1.93,0,0,0-2,2.13v5.2h-1.63v-8.48h1.63v1.07h0a2.9,2.9,0,0,1,2.5-1.31,2.16,2.16,0,0,1,2.25,1.47h0A3.36,3.36,0,0,1,364.85,895.1Z"/><path class="cls-3" d="M99.06,991.54h-1V982h1.18l5.14,8.14h0V982h1v9.51h-1.18l-5.15-8.14h0Zm14-3.7a3.25,3.25,0,0,1,0,.48h-5.37A2.4,2.4,0,0,0,110,991a2,2,0,0,0,2.08-1.52h.87a2.88,2.88,0,0,1-3,2.26c-2.07,0-3.23-1.51-3.23-3.57s1.28-3.56,3.23-3.56A3,3,0,0,1,113,987.84Zm-5.39-.28h4.47a2.1,2.1,0,0,0-2.18-2.23A2.26,2.26,0,0,0,107.63,987.56ZM118.75,989v-4.28h.86v6.78h-.86v-1h0a2.68,2.68,0,0,1-2.32,1.12,2,2,0,0,1-2.22-2.18v-4.76H115v4.57a1.43,1.43,0,0,0,1.57,1.61A2,2,0,0,0,118.75,989Zm8.39-1.2c0,.19,0,.37,0,.48h-5.37A2.39,2.39,0,0,0,124.1,991a2,2,0,0,0,2.07-1.52h.88a2.9,2.9,0,0,1-3,2.26c-2.07,0-3.23-1.51-3.23-3.57s1.28-3.56,3.23-3.56A3,3,0,0,1,127.14,987.84Zm-5.38-.28h4.46a2.1,2.1,0,0,0-2.18-2.23A2.24,2.24,0,0,0,121.76,987.56Zm10.68,4h-1V982h1.34l3.21,8.21h0l3.22-8.21h1.34v9.51h-1V983.4h0l-3.13,8.14h-.88l-3.12-8.14h0Zm12.72.18c-2,0-3.26-1.46-3.26-3.56s1.23-3.57,3.26-3.57,3.26,1.46,3.26,3.57S147.19,991.72,145.16,991.72Zm0-.75c1.58,0,2.35-1.25,2.35-2.81s-.77-2.82-2.35-2.82-2.35,1.25-2.35,2.82S143.58,991,145.16,991Zm7.69-6.37a2,2,0,0,1,2.22,2.18v4.76h-.86V987a1.43,1.43,0,0,0-1.57-1.61,2,2,0,0,0-2.14,1.9v4.28h-.86v-6.78h.86v1h0A2.68,2.68,0,0,1,152.85,984.6Zm6.31.16v.76h-1.37v4.28c0,.83.19,1,.85,1l.52,0v.73a3.89,3.89,0,0,1-.64.05c-1,0-1.59-.33-1.59-1.81v-4.26h-1v-.76h1V982.5h.86v2.26Zm3.94-.16a3.15,3.15,0,0,1,.58,0v.85a1.9,1.9,0,0,0-.41,0,2.16,2.16,0,0,0-2.13,2.3v3.79h-.86v-6.78h.86v1.38h0A2.09,2.09,0,0,1,163.1,984.6Zm7.05,3.24c0,.19,0,.37,0,.48h-5.37a2.39,2.39,0,0,0,2.34,2.66,2,2,0,0,0,2.07-1.52h.88a2.88,2.88,0,0,1-3,2.26c-2.08,0-3.23-1.51-3.23-3.57s1.27-3.56,3.23-3.56A3,3,0,0,1,170.15,987.84Zm-5.38-.28h4.47a2.11,2.11,0,0,0-2.18-2.23A2.25,2.25,0,0,0,164.77,987.56Zm8.45,4.15c-1.35,0-2.22-.76-2.22-1.89,0-1.46,1-1.92,2.8-2.23,1.11-.2,1.83-.28,1.83-1.09s-.45-1.16-1.54-1.16c-1.32,0-1.78.47-1.85,1.47h-.92c.07-1.2.83-2.22,2.79-2.22,1.25,0,2.36.53,2.36,2.15v3.39c0,.54.08.8.38.8a.68.68,0,0,0,.19,0v.63a3.26,3.26,0,0,1-.45.05c-.57,0-.91-.23-1-1.08h0A2.57,2.57,0,0,1,173.22,991.71Zm.11-.76c1.38,0,2.3-.73,2.3-2v-1.26a3.32,3.32,0,0,1-1.73.57c-1.31.24-2,.57-2,1.43S172.35,991,173.33,991Zm5.72.59h-.86V982h.86Z"/><path class="cls-3" d="M314.78,991.54h-4V982h3.79c1.87,0,3,.91,3,2.4a2,2,0,0,1-1.5,2v0a2.23,2.23,0,0,1,1.89,2.35C317.92,990.61,316.67,991.54,314.78,991.54Zm-3.07-5.43h3c1.32,0,1.81-.65,1.81-1.59s-.58-1.63-1.81-1.63h-3Zm0,4.58h3.11c1.5,0,2.09-.77,2.09-1.88a1.73,1.73,0,0,0-1.85-1.84h-3.35Zm10.4,1c-2,0-3.26-1.46-3.26-3.56s1.23-3.57,3.26-3.57,3.25,1.46,3.25,3.57S324.14,991.72,322.11,991.72Zm0-.75c1.58,0,2.35-1.25,2.35-2.81s-.77-2.82-2.35-2.82-2.35,1.25-2.35,2.82S320.53,991,322.11,991Zm7.36.75c-2,0-3.26-1.46-3.26-3.56s1.22-3.57,3.26-3.57,3.25,1.46,3.25,3.57S331.5,991.72,329.47,991.72Zm0-.75c1.58,0,2.35-1.25,2.35-2.81s-.77-2.82-2.35-2.82-2.35,1.25-2.35,2.82S327.89,991,329.47,991Zm10.09.57h-1L336,987.79l-1.17,1.09v2.66h-.87V982h.87V988l3.36-3.19h1.06l-2.67,2.48Z"/><path class="cls-3" d="M488.48,903.82h-8.16c0-2.16,1.31-3.66,3.5-5,1.95-1.18,2.93-1.66,2.93-3.19a1.75,1.75,0,0,0-1.95-2c-1.79,0-2.35,1.16-2.35,2.74h-1.83c0-2.44,1.33-4.28,4.23-4.28,2.08,0,3.76,1.24,3.76,3.43s-1.81,3.38-3.46,4.39c-1.13.66-2.19,1.3-2.52,2.31v0h5.85Zm5.7.23c-2.74,0-4.24-1.66-4.3-3.59h1.82a2.15,2.15,0,0,0,2.38,2,2.31,2.31,0,0,0,2.43-2.61,2.09,2.09,0,0,0-2.31-2.35,2.84,2.84,0,0,0-2.33,1H490l1.23-6.24h6.53v1.54h-5.16l-.63,3.18v0a3.52,3.52,0,0,1,2.68-1,3.61,3.61,0,0,1,3.69,3.81A4,4,0,0,1,494.18,904.05Z"/><path class="cls-3" d="M487.82,991.54h-6.23c0-1.7,1.05-3,2.72-3.9s2.59-1.35,2.59-2.75a1.7,1.7,0,0,0-1.85-1.86c-1.59,0-2.19,1.12-2.19,2.42h-1a3,3,0,0,1,3.2-3.27,2.64,2.64,0,0,1,2.85,2.7c0,1.74-1.37,2.54-2.71,3.29-1.12.64-2.28,1.27-2.45,2.49v0h5.07Zm4.74.17c-2.43,0-3.46-2.15-3.46-4.76s1-4.77,3.46-4.77S496,984.35,496,987,495,991.71,492.56,991.71Zm0-.85c1.82,0,2.46-1.82,2.46-3.91s-.64-3.92-2.46-3.92-2.45,1.82-2.45,3.92S490.75,990.86,492.56,990.86Z"/><path class="cls-1" d="M127.47,105.22h-8.42A35.09,35.09,0,0,0,84,140.31V277.83a35.08,35.08,0,0,0,35.09,35.08H269.2a35.08,35.08,0,0,0,35.08-35.08V140.31a35.09,35.09,0,0,0-35.08-35.09h-8.42v2.11h8.42a33,33,0,0,1,33,33V277.83a33,33,0,0,1-33,33H119.05a33,33,0,0,1-33-33V140.31a33,33,0,0,1,33-33h8.42Z"/><path class="cls-1" d="M380.06,105.22H368.13a35.09,35.09,0,0,0-35.08,35.09V277.83a35.08,35.08,0,0,0,35.08,35.08H518.29a35.08,35.08,0,0,0,35.08-35.08V140.31a35.09,35.09,0,0,0-35.08-35.09h-4.21v2.11h4.21a33,33,0,0,1,33,33V277.83a33,33,0,0,1-33,33H368.13a33,33,0,0,1-33-33V140.31a33,33,0,0,1,33-33h11.93Z"/><path class="cls-2" d="M156.75,112.24H146.27v-15h3.79v12h6.69Zm6.06.36a5.75,5.75,0,1,1,5.79-5.79A5.43,5.43,0,0,1,162.81,112.6Zm0-2.53c1.5,0,2.34-1.13,2.34-3.22s-.84-3.22-2.34-3.22-2.36,1.14-2.36,3.22S161.34,110.07,162.85,110.07Zm14.23-7.53v-1.08h3.36V111c0,3.85-2.08,5.13-5.38,5.13s-4.91-1.77-5.29-3.49h3.41c.21.59.7,1.07,1.88,1.07,1.51,0,2-.8,2-2.71v-.63H177a3.6,3.6,0,0,1-2.94,1.41c-2.76,0-4.53-2.19-4.53-5.31s1.77-5.3,4.53-5.3a3.57,3.57,0,0,1,2.94,1.41ZM175,109.21c1.37,0,2-1,2-2.78s-.63-2.78-2-2.78-2,1-2,2.78S173.65,109.21,175,109.21Zm12.53,3.39a5.75,5.75,0,1,1,5.79-5.79A5.43,5.43,0,0,1,187.54,112.6Zm0-2.53c1.5,0,2.34-1.13,2.34-3.22s-.84-3.22-2.34-3.22-2.36,1.14-2.36,3.22S186.07,110.07,187.58,110.07Zm15.06,2.17h-3.58v-15h4.63l3.09,9.6h0l3.1-9.6h4.63v15H211v-9.37h0l-2.8,9.37h-2.65l-2.8-9.37h0Zm16.79.34c-2.11,0-3.43-1.24-3.43-3.16,0-2.23,1.83-3.09,4.12-3.58,1.18-.25,2.85-.42,2.85-1.49,0-.59-.47-1-1.44-1-1.24,0-1.81.5-1.91,1.56h-3.2c.1-2.07,1.62-3.83,5.26-3.83,2.93,0,4.55,1.17,4.55,4.48v4.17c0,.57.06.82.4.82a1.42,1.42,0,0,0,.27,0v1.6a11.48,11.48,0,0,1-1.85.19c-1.35,0-1.85-.51-2-1.41h0A4.52,4.52,0,0,1,219.43,112.58Zm1.41-2.32a2.19,2.19,0,0,0,2.13-2.38V107a15.34,15.34,0,0,1-1.84.5c-1.24.3-1.68.82-1.68,1.58S220,110.26,220.84,110.26Zm13.52-8.88a4,4,0,0,1,.93.08v3a4.41,4.41,0,0,0-.7-.06,2.73,2.73,0,0,0-2.9,2.88v5h-3.37V101.46h3.37v1.77h0A2.88,2.88,0,0,1,234.36,101.38Zm13,10.86h-3.89L241,107.8,239.79,109v3.2h-3.37v-15h3.37v8.27l3.6-4H247l-3.81,4Z"/><path class="cls-2" d="M407.24,112.24H396.76v-15h3.79v12h6.69Zm6.06.36a5.75,5.75,0,1,1,5.79-5.79A5.43,5.43,0,0,1,413.3,112.6Zm0-2.53c1.5,0,2.34-1.13,2.34-3.22s-.84-3.22-2.34-3.22-2.36,1.14-2.36,3.22S411.83,110.07,413.34,110.07Zm14.23-7.53v-1.08h3.36V111c0,3.85-2.08,5.13-5.38,5.13s-4.91-1.77-5.29-3.49h3.41c.21.59.7,1.07,1.88,1.07,1.51,0,2-.8,2-2.71v-.63h-.05a3.6,3.6,0,0,1-2.94,1.41c-2.76,0-4.53-2.19-4.53-5.31s1.77-5.3,4.53-5.3a3.57,3.57,0,0,1,2.94,1.41Zm-2.07,6.67c1.37,0,2-1,2-2.78s-.63-2.78-2-2.78-2,1-2,2.78S424.14,109.21,425.5,109.21ZM438,112.6a5.75,5.75,0,1,1,5.79-5.79A5.43,5.43,0,0,1,438,112.6Zm0-2.53c1.5,0,2.34-1.13,2.34-3.22s-.84-3.22-2.34-3.22-2.36,1.14-2.36,3.22S436.55,110.07,438.07,110.07Zm18.16,2.17h-3.79v-12h-4.37V97.19h12.52v3.09h-4.36Zm6.11,3.73a9.68,9.68,0,0,1-2-.21v-2.57a8.31,8.31,0,0,0,1,.06c.65,0,1.6,0,1.89-1.16l-4.29-10.63h3.47l2.53,7.1h0l2.32-7.1h3.32l-3.93,10.8C465.77,114.72,464.72,116,462.34,116Zm15.76-14.84c2.86,0,4.7,2.19,4.7,5.72s-1.84,5.73-4.7,5.73a4,4,0,0,1-3.11-1.41h-.05V116h-3.36V101.46h3.36v1.08H475A4,4,0,0,1,478.1,101.13Zm-.93,8.92c1.37,0,2.17-1.09,2.17-3.2s-.8-3.2-2.17-3.2-2.16,1.1-2.16,3.2S475.81,110.05,477.17,110.05Zm17.7-2.8v.51h-7.75a2.2,2.2,0,0,0,2.32,2.31,1.79,1.79,0,0,0,1.91-1.09h3.44c-.62,2.19-2.4,3.62-5.44,3.62-3.49,0-5.59-2.38-5.59-5.75,0-3.16,2-5.74,5.59-5.74S494.87,103.27,494.87,107.25Zm-7.73-1.58h4.34a1.93,1.93,0,0,0-2.13-2.12A2.05,2.05,0,0,0,487.14,105.67Z"/><path class="cls-2" d="M157.1,197.4l7.05-23.49h6.62L162,203.27H150.31l-8.81-29.36h6.62l7,23.49Z"/><path class="cls-2" d="M187.29,203.9c-9.19,0-15.18-6.12-15.18-15.31,0-8.18,5.65-15.31,14.93-15.31,9.45,0,14.09,7.05,14.09,14.47a24.32,24.32,0,0,1-.13,2.94H178.65c.76,4.82,4.51,7.26,9.19,7.26a10.41,10.41,0,0,0,8.82-4.7l4.34,4.4A16.93,16.93,0,0,1,187.29,203.9Zm-8.35-18.45h15.48c-.21-3.36-2.87-6.29-7.38-6.29A8,8,0,0,0,178.94,185.45Z"/><path class="cls-2" d="M205.94,203.27V173.91h6.46v23.32h14.13v6Z"/><path class="cls-2" d="M231.08,203.27V173.91h6.45v23.32h14.13v6Z"/><path class="cls-2" d="M151.07,213.46h6.41v17.41a6.2,6.2,0,0,0,6.5,6.54,7.17,7.17,0,0,0,7.29-7v-17h6.41v29.36h-5.94v-4.45h-1.35l-2.16,4a13.87,13.87,0,0,1-6,1.09c-6.79,0-11.13-5.12-11.13-11.7Z"/><path class="cls-2" d="M222,225.62c0-3.48-1.48-6.58-6.24-6.58-3.93,0-6.84,2.43-6.84,6.75v17h-6.41v-17.2c0-3.48-1.56-6.58-6.32-6.58-3.93,0-6.75,2.43-6.75,6.75v17H183V213.46H189v4.61h1.34l2.16-4a17.8,17.8,0,0,1,5.86-1.09c4.76,0,7.84,2.09,9.28,5.11h1.22l2.53-4A16.66,16.66,0,0,1,217.2,213c8,0,11.18,5.24,11.18,11.74v18.12H222Z"/><path class="cls-2" d="M233.33,239.05a4.38,4.38,0,0,1,4.39-4.41,4.41,4.41,0,1,1,0,8.81A4.38,4.38,0,0,1,233.33,239.05Z"/><path class="cls-2" d="M524.5,221.87a3.94,3.94,0,0,1,3.87-4,4,4,0,0,1,0,8.08A3.94,3.94,0,0,1,524.5,221.87Z"/><path class="cls-2" d="M516.33,209.57c0-3.19-1.3-6-5.51-6-3.46,0-6,2.23-6,6.19v15.61h-5.66V209.57c0-3.19-1.38-6-5.58-6-3.47,0-6,2.23-6,6.19v15.61h-5.66V198.42h5.25v4.23h1.19l1.9-3.69a15.14,15.14,0,0,1,5.17-1c4.21,0,6.93,1.92,8.2,4.69h1.08L507,199a14,14,0,0,1,5.17-1c7.08,0,9.87,4.8,9.87,10.76v16.61h-5.66Z"/><path class="cls-2" d="M455.6,198.42h5.66v16c0,4,2.72,6,5.73,6a6.45,6.45,0,0,0,6.45-6.38V198.42h5.66v26.91h-5.25v-4.07h-1.2l-1.89,3.65a11.9,11.9,0,0,1-5.33,1c-6,0-9.83-4.69-9.83-10.73Z"/><path class="cls-2" d="M435.31,225.33V198.42H441V219.8h12.47v5.53Z"/><path class="cls-2" d="M415,225.33V198.42h5.69V219.8h12.48v5.53Z"/><path class="cls-2" d="M400.38,225.91c-8.11,0-13.4-5.61-13.4-14,0-7.5,5-14,13.18-14s12.44,6.46,12.44,13.27a25.3,25.3,0,0,1-.11,2.69H392.75c.67,4.42,4,6.65,8.12,6.65a9.09,9.09,0,0,0,7.78-4.31l3.84,4A14.78,14.78,0,0,1,400.38,225.91ZM393,209h13.67a6.14,6.14,0,0,0-6.52-5.77A7.1,7.1,0,0,0,393,209Z"/><path class="cls-2" d="M375.59,220l6.22-21.53h5.85l-7.75,26.91H369.6l-7.78-26.91h5.84L373.88,220Z"/><rect class="cls-4" x="647.39" y="117.15" width="154.36" height="154.36" rx="21.05"/><path class="cls-2" d="M685.43,183.78l7-23.57H699l-8.7,29.46H678.7L670,160.21h6.56l7,23.57Z"/><path class="cls-2" d="M715.37,190.31c-9.12,0-15.06-6.15-15.06-15.37,0-8.2,5.6-15.36,14.8-15.36,9.37,0,14,7.07,14,14.52a25.75,25.75,0,0,1-.12,3H706.79c.76,4.84,4.48,7.28,9.12,7.28a10.26,10.26,0,0,0,8.74-4.72L729,184A16.72,16.72,0,0,1,715.37,190.31Zm-8.28-18.52h15.34c-.21-3.37-2.84-6.32-7.32-6.32A7.91,7.91,0,0,0,707.09,171.79Z"/><path class="cls-2" d="M733.86,189.67V160.21h6.4v23.4h14v6.06Z"/><path class="cls-2" d="M758.78,189.67V160.21h6.4v23.4h14v6.06Z"/><path class="cls-2" d="M679.45,199.9h6.35v17.46a6.18,6.18,0,0,0,6.44,6.57,7.15,7.15,0,0,0,7.24-7v-17h6.36v29.46h-5.9V224.9H698.6l-2.13,4a13.69,13.69,0,0,1-6,1.09c-6.73,0-11-5.13-11-11.74Z"/><path class="cls-2" d="M749.75,212.1c0-3.49-1.47-6.61-6.19-6.61-3.89,0-6.78,2.45-6.78,6.78v17.09h-6.35V212.1c0-3.49-1.55-6.61-6.28-6.61-3.88,0-6.69,2.45-6.69,6.78v17.09h-6.35V199.9H717v4.63h1.34l2.13-4a17.34,17.34,0,0,1,5.82-1.1c4.72,0,7.78,2.11,9.2,5.14h1.21l2.51-4a16.18,16.18,0,0,1,5.81-1.1c8,0,11.08,5.26,11.08,11.79v18.18h-6.35Z"/><path class="cls-2" d="M761,225.57a4.37,4.37,0,0,1,4.35-4.42,4.42,4.42,0,1,1,0,8.84A4.37,4.37,0,0,1,761,225.57Z"/><rect class="cls-2" x="832.63" y="117.15" width="154.36" height="154.36" rx="21.05"/><path class="cls-4" d="M870.67,183.78l7-23.57h6.57l-8.7,29.46H863.93l-8.74-29.46h6.57l7,23.57Z"/><path class="cls-4" d="M900.6,190.31c-9.11,0-15.06-6.15-15.06-15.37,0-8.2,5.61-15.36,14.81-15.36,9.37,0,14,7.07,14,14.52a24.56,24.56,0,0,1-.13,3H892c.75,4.84,4.47,7.28,9.11,7.28a10.25,10.25,0,0,0,8.74-4.72l4.31,4.42A16.69,16.69,0,0,1,900.6,190.31Zm-8.28-18.52h15.35c-.21-3.37-2.84-6.32-7.32-6.32A7.93,7.93,0,0,0,892.32,171.79Z"/><path class="cls-4" d="M919.1,189.67V160.21h6.39v23.4h14v6.06Z"/><path class="cls-4" d="M944,189.67V160.21h6.4v23.4h14v6.06Z"/><path class="cls-4" d="M864.68,199.9H871v17.46a6.18,6.18,0,0,0,6.44,6.57,7.15,7.15,0,0,0,7.24-7v-17h6.35v29.46h-5.9V224.9h-1.33l-2.13,4a13.74,13.74,0,0,1-6,1.09c-6.73,0-11-5.13-11-11.74Z"/><path class="cls-4" d="M935,212.1c0-3.49-1.46-6.61-6.19-6.61-3.88,0-6.77,2.45-6.77,6.78v17.09h-6.35V212.1c0-3.49-1.55-6.61-6.28-6.61-3.89,0-6.69,2.45-6.69,6.78v17.09h-6.36V199.9h5.9v4.63h1.34l2.13-4a17.34,17.34,0,0,1,5.82-1.1c4.72,0,7.77,2.11,9.2,5.14h1.21l2.5-4a16.24,16.24,0,0,1,5.82-1.1c7.94,0,11.08,5.26,11.08,11.79v18.18H935Z"/><path class="cls-4" d="M946.25,225.57a4.37,4.37,0,0,1,4.34-4.42,4.42,4.42,0,1,1,0,8.84A4.37,4.37,0,0,1,946.25,225.57Z"/><rect class="cls-4" x="647.39" y="299.58" width="339.6" height="154.36" rx="28.07"/><path class="cls-2" d="M926.91,390.08a5.16,5.16,0,0,1,5.15-5.2,5.2,5.2,0,1,1,0,10.39A5.16,5.16,0,0,1,926.91,390.08Z"/><path class="cls-2" d="M916.06,374.25c0-4.11-1.73-7.77-7.33-7.77-4.61,0-8,2.87-8,8v20.08h-7.52V374.25c0-4.11-1.84-7.77-7.43-7.77-4.61,0-7.92,2.87-7.92,8v20.08h-7.53V359.9h7v5.44h1.59l2.52-4.74a20.79,20.79,0,0,1,6.88-1.29c5.6,0,9.21,2.47,10.9,6h1.43l3-4.74a19.33,19.33,0,0,1,6.88-1.29c9.41,0,13.12,6.18,13.12,13.85v21.37h-7.52Z"/><path class="cls-2" d="M835.31,359.9h7.52v20.53a7.3,7.3,0,0,0,7.63,7.72,8.43,8.43,0,0,0,8.56-8.21v-20h7.53v34.63h-7v-5.25H858l-2.52,4.7a16.18,16.18,0,0,1-7.08,1.29c-8,0-13.07-6-13.07-13.8Z"/><path class="cls-2" d="M808.33,394.53V359.9h7.58v27.5h16.58v7.13Z"/><path class="cls-2" d="M781.31,394.53V359.9h7.57v27.5h16.58v7.13Z"/><path class="cls-2" d="M761.89,395.27c-10.79,0-17.82-7.22-17.82-18.06,0-9.64,6.63-18,17.52-18,11.09,0,16.54,8.31,16.54,17.07a28.47,28.47,0,0,1-.15,3.46H751.74c.89,5.69,5.3,8.56,10.8,8.56a12.2,12.2,0,0,0,10.34-5.54l5.1,5.19A19.84,19.84,0,0,1,761.89,395.27Zm-9.8-21.76h18.17c-.25-4-3.37-7.42-8.67-7.42A9.36,9.36,0,0,0,752.09,373.51Z"/><path class="cls-2" d="M728.93,387.6l8.27-27.7H745l-10.3,34.63H721L710.61,359.9h7.77l8.27,27.7Z"/><rect class="cls-2" x="647.39" y="482.01" width="339.6" height="154.36" rx="28.07"/><path class="cls-4" d="M926.91,572.5a5.16,5.16,0,0,1,5.15-5.19,5.2,5.2,0,1,1,0,10.39A5.16,5.16,0,0,1,926.91,572.5Z"/><path class="cls-4" d="M916.06,556.68c0-4.11-1.73-7.77-7.33-7.77-4.61,0-8,2.87-8,8V577h-7.52V556.68c0-4.11-1.84-7.77-7.43-7.77-4.61,0-7.92,2.87-7.92,8V577h-7.53V542.33h7v5.44h1.59L881.4,543a21.09,21.09,0,0,1,6.88-1.28c5.6,0,9.21,2.47,10.9,6h1.43l3-4.75a19.59,19.59,0,0,1,6.88-1.28c9.41,0,13.12,6.18,13.12,13.85V577h-7.52Z"/><path class="cls-4" d="M835.31,542.33h7.52v20.53a7.3,7.3,0,0,0,7.63,7.72,8.43,8.43,0,0,0,8.56-8.21v-20h7.53V577h-7v-5.25H858l-2.52,4.7a16.18,16.18,0,0,1-7.08,1.29c-8,0-13.07-6-13.07-13.8Z"/><path class="cls-4" d="M808.33,577V542.33h7.58v27.5h16.58V577Z"/><path class="cls-4" d="M781.31,577V542.33h7.57v27.5h16.58V577Z"/><path class="cls-4" d="M761.89,577.7c-10.79,0-17.82-7.22-17.82-18.06,0-9.64,6.63-18,17.52-18,11.09,0,16.54,8.31,16.54,17.06a28.55,28.55,0,0,1-.15,3.47H751.74c.89,5.69,5.3,8.56,10.8,8.56a12.18,12.18,0,0,0,10.34-5.55l5.1,5.2A19.84,19.84,0,0,1,761.89,577.7Zm-9.8-21.77h18.17c-.25-3.95-3.37-7.41-8.67-7.41A9.36,9.36,0,0,0,752.09,555.93Z"/><path class="cls-4" d="M728.93,570l8.27-27.7H745L734.67,577H721l-10.35-34.63h7.77l8.27,27.7Z"/><circle class="cls-4" cx="196.93" cy="498.85" r="115.77"/><path class="cls-2" d="M144,489.38l10-33.83h9.41L151,497.83h-16.6l-12.52-42.28h9.41l10,33.83Z"/><path class="cls-2" d="M186.9,498.74c-13.06,0-21.57-8.82-21.57-22.05,0-11.78,8-22,21.21-22,13.42,0,20,10.14,20,20.83a35.17,35.17,0,0,1-.18,4.23H174.62c1.08,7,6.41,10.45,13.06,10.45,5.87,0,9.76-2.9,12.52-6.76l6.17,6.34C202.41,494.63,196.24,498.74,186.9,498.74ZM175,472.16h22c-.3-4.83-4.07-9.06-10.48-9.06C180.79,463.1,176.54,466.42,175,472.16Z"/><path class="cls-2" d="M213.39,497.83V455.55h9.16v33.58h20.07v8.7Z"/><path class="cls-2" d="M249.09,497.83V455.55h9.16v33.58h20.07v8.7Z"/><path class="cls-2" d="M135.45,512.5h9.1v25.07c0,6.22,4.38,9.42,9.23,9.42a10.24,10.24,0,0,0,10.36-10V512.5h9.11v42.28H164.8v-6.4h-1.92l-3,5.73a19.39,19.39,0,0,1-8.57,1.57c-9.64,0-15.81-7.36-15.81-16.85Z"/><path class="cls-2" d="M236.15,530c0-5-2.1-9.49-8.86-9.49-5.58,0-9.71,3.51-9.71,9.73v24.52h-9.11V530c0-5-2.21-9.49-9-9.49-5.57,0-9.59,3.51-9.59,9.73v24.52h-9.1V512.5h8.45v6.64h1.91l3.06-5.79a24.91,24.91,0,0,1,8.32-1.57c6.77,0,11.15,3,13.18,7.36h1.74l3.59-5.79a23.29,23.29,0,0,1,8.33-1.57c11.38,0,15.88,7.55,15.88,16.91v26.09h-9.11Z"/><path class="cls-2" d="M252.29,549.34a6.26,6.26,0,0,1,6.23-6.34,6.34,6.34,0,1,1,0,12.68A6.26,6.26,0,0,1,252.29,549.34Z"/><circle class="cls-2" cx="448.82" cy="498.85" r="115.77"/><path class="cls-4" d="M395.91,489.38l10-33.83h9.41l-12.46,42.28H386.27l-12.52-42.28h9.4l10,33.83Z"/><path class="cls-4" d="M438.79,498.74c-13.06,0-21.56-8.82-21.56-22.05,0-11.78,8-22,21.2-22,13.42,0,20,10.14,20,20.83a35.17,35.17,0,0,1-.18,4.23H426.51c1.08,7,6.41,10.45,13.06,10.45,5.87,0,9.76-2.9,12.52-6.76l6.17,6.34C454.31,494.63,448.14,498.74,438.79,498.74Zm-11.86-26.58h22c-.3-4.83-4.08-9.06-10.49-9.06C432.68,463.1,428.43,466.42,426.93,472.16Z"/><path class="cls-4" d="M465.28,497.83V455.55h9.17v33.58h20.07v8.7Z"/><path class="cls-4" d="M501,497.83V455.55h9.17v33.58h20.06v8.7Z"/><path class="cls-4" d="M387.34,512.5h9.11v25.07c0,6.22,4.37,9.42,9.22,9.42A10.24,10.24,0,0,0,416,537V512.5h9.11v42.28h-8.45v-6.4h-1.91l-3.06,5.73a19.39,19.39,0,0,1-8.57,1.57c-9.64,0-15.81-7.36-15.81-16.85Z"/><path class="cls-4" d="M488,530c0-5-2.09-9.49-8.86-9.49-5.57,0-9.71,3.51-9.71,9.73v24.52h-9.1V530c0-5-2.22-9.49-9-9.49-5.57,0-9.58,3.51-9.58,9.73v24.52h-9.11V512.5h8.45v6.64h1.92l3.05-5.79a25,25,0,0,1,8.33-1.57c6.77,0,11.14,3,13.18,7.36h1.73l3.6-5.79a23.23,23.23,0,0,1,8.32-1.57c11.39,0,15.88,7.55,15.88,16.91v26.09H488Z"/><path class="cls-4" d="M504.18,549.34a6.27,6.27,0,0,1,6.23-6.34,6.34,6.34,0,1,1,0,12.68A6.26,6.26,0,0,1,504.18,549.34Z"/></g></svg>